<?xml version="1.0" encoding="UTF-8" standalone="no"?>
<!-- Created with Inkscape (http://www.inkscape.org/) -->

<svg
   xmlns:dc="http://purl.org/dc/elements/1.1/"
   xmlns:cc="http://creativecommons.org/ns#"
   xmlns:rdf="http://www.w3.org/1999/02/22-rdf-syntax-ns#"
   xmlns:svg="http://www.w3.org/2000/svg"
   xmlns="http://www.w3.org/2000/svg"
   xmlns:sodipodi="http://sodipodi.sourceforge.net/DTD/sodipodi-0.dtd"
   xmlns:inkscape="http://www.inkscape.org/namespaces/inkscape"
   width="210mm"
   height="297mm"
   viewBox="0 0 210 297"
   version="1.1"
   id="svg8"
   inkscape:version="0.92.2 (5c3e80d, 2017-08-06)"
   sodipodi:docname="odin helmet.svg">
  <defs
     id="defs2" />
  <sodipodi:namedview
     id="base"
     pagecolor="#ffffff"
     bordercolor="#666666"
     borderopacity="1.0"
     inkscape:pageopacity="0.0"
     inkscape:pageshadow="2"
     inkscape:zoom="0.49497475"
     inkscape:cx="194.75505"
     inkscape:cy="479.68567"
     inkscape:document-units="mm"
     inkscape:current-layer="layer1"
     showgrid="false"
     inkscape:window-width="1920"
     inkscape:window-height="1031"
     inkscape:window-x="0"
     inkscape:window-y="0"
     inkscape:window-maximized="1"
     inkscape:snap-global="false" />
  <metadata
     id="metadata5">
    <rdf:RDF>
      <cc:Work
         rdf:about="">
        <dc:format>image/svg+xml</dc:format>
        <dc:type
           rdf:resource="http://purl.org/dc/dcmitype/StillImage" />
        <dc:title />
      </cc:Work>
    </rdf:RDF>
  </metadata>
  <g
     inkscape:label="Layer 1"
     inkscape:groupmode="layer"
     id="layer1">
    <g
       id="g1585"
       transform="matrix(1.012791,0,0,1.1840248,-0.53769415,32.925735)">
      <path
         sodipodi:nodetypes="cccc"
         inkscape:connector-curvature="0"
         id="path880"
         d="M 70.681545,62.371279 C 75.861932,41.716721 87.934776,26.010594 102.90401,12.383928 l -5.197167,43.561754 c -9.314737,1.069801 -18.208828,3.611861 -27.025298,6.425597 z"
         style="fill:none;stroke:#000000;stroke-width:0.26458332px;stroke-linecap:butt;stroke-linejoin:miter;stroke-opacity:1" />
      <path
         sodipodi:nodetypes="ccccc"
         inkscape:connector-curvature="0"
         id="path882"
         d="m 105.45535,11.722469 c -2.58749,21.737926 -5.55165,42.973622 -6.709073,66.618303 l 6.803573,9.354912 6.89806,-9.07143 c -1.05688,-22.937579 -3.95554,-44.954273 -6.99256,-66.901785 z"
         style="fill:none;stroke:#000000;stroke-width:0.26458332px;stroke-linecap:butt;stroke-linejoin:miter;stroke-opacity:1" />
      <path
         sodipodi:nodetypes="cccc"
         inkscape:connector-curvature="0"
         id="path884"
         d="m 108.00669,12.289434 c 2.10965,14.347705 3.6663,28.971911 5.29167,43.561755 9.10849,1.573032 18.16666,3.447978 27.0253,6.52009 C 135.7408,42.376281 123.90795,26.247948 108.00669,12.289434 Z"
         style="fill:none;stroke:#000000;stroke-width:0.26458332px;stroke-linecap:butt;stroke-linejoin:miter;stroke-opacity:1" />
      <path
         sodipodi:nodetypes="ccccc"
         inkscape:connector-curvature="0"
         id="path886"
         d="m 69.925594,65.489581 c 9.48795,-4.294517 18.503744,-5.756099 27.497767,-7.087052 l -0.377976,7.370535 c -9.360581,1.379613 -18.73999,2.947515 -28.348215,6.803572 z"
         style="fill:none;stroke:#000000;stroke-width:0.26458332px;stroke-linecap:butt;stroke-linejoin:miter;stroke-opacity:1" />
      <path
         sodipodi:nodetypes="ccccc"
         inkscape:connector-curvature="0"
         id="path888"
         d="m 113.48735,58.497022 0.56696,7.087055 c 9.68323,1.004259 19.07416,3.469957 28.25372,6.992559 l -1.22842,-6.992559 c -8.57892,-3.39318 -17.51146,-6.196996 -27.59226,-7.087055 z"
         style="fill:none;stroke:#000000;stroke-width:0.26458332px;stroke-linecap:butt;stroke-linejoin:miter;stroke-opacity:1" />
      <path
         sodipodi:nodetypes="cccccc"
         inkscape:connector-curvature="0"
         id="path890"
         d="M 96.667409,68.229911 96.383927,79.19122 c -3.307292,1.840302 -6.614583,4.712471 -9.921875,8.315475 0.608229,-6.042182 -2.029094,-9.704292 -8.976934,-10.205357 l 3.590774,-6.331101 c 5.361763,-1.736394 10.475474,-2.232529 15.591517,-2.740326 z"
         style="fill:none;stroke:#000000;stroke-width:0.26458332px;stroke-linecap:butt;stroke-linejoin:miter;stroke-opacity:1" />
      <path
         sodipodi:nodetypes="cccccc"
         inkscape:connector-curvature="0"
         id="path892"
         d="m 114.14881,68.040921 0.56696,11.055805 c 3.70477,2.333098 6.89546,5.437312 10.11086,8.504463 -0.0691,-5.144724 0.72298,-9.778059 8.59896,-10.205358 -0.29815,-2.532873 -2.1007,-4.463982 -3.59077,-6.520087 z"
         style="fill:none;stroke:#000000;stroke-width:0.26458332px;stroke-linecap:butt;stroke-linejoin:miter;stroke-opacity:1" />
      <path
         sodipodi:nodetypes="cccccccccccccc"
         inkscape:connector-curvature="0"
         id="path894"
         d="m 58.491816,29.959821 h 14.363093 l 3.590775,11.055802 c -8.73867,14.73728 -12.16506,36.043367 -9.5439,47.719496 C 62.338454,85.854967 58.7089,81.876256 58.39732,73.994046 l 0.188989,-13.512649 c 4.59871,-4.252232 4.60534,-4.674948 12.024368,-11.362908 0.572681,-0.639615 -1.001754,-2.191358 -1.819011,-1.488281 l -10.205357,9.638391 v -3.590772 l 6.142111,-5.669645 c 0.97579,-0.966447 -0.433648,-2.907255 -1.511903,-1.984375 l -4.724701,4.535715 z"
         style="fill:none;stroke:#000000;stroke-width:0.26458332px;stroke-linecap:butt;stroke-linejoin:miter;stroke-opacity:1" />
      <path
         sodipodi:nodetypes="ccccc"
         inkscape:connector-curvature="0"
         id="path896"
         d="m 56.129462,29.959821 v 2.834821 H 39.876486 c 1.471295,-1.473095 3.086058,-2.880976 7.276042,-3.118303 z"
         style="fill:none;stroke:#000000;stroke-width:0.26458332px;stroke-linecap:butt;stroke-linejoin:miter;stroke-opacity:1" />
      <path
         sodipodi:nodetypes="cccc"
         inkscape:connector-curvature="0"
         id="path898"
         d="m 56.129462,35.251488 v 2.55134 c -4.793547,0.479293 -7.558059,-1.408621 -10.961309,-2.55134 z"
         style="fill:none;stroke:#000000;stroke-width:0.26458332px;stroke-linecap:butt;stroke-linejoin:miter;stroke-opacity:1" />
      <path
         sodipodi:nodetypes="ccccccccccccccccccc"
         inkscape:connector-curvature="0"
         id="path900"
         d="m 56.223958,54.339286 v 13.701635 l -6.52009,-0.377976 c -0.79674,-0.03309 -3.839271,-1.111412 -3.96875,-3.968749 l 8.126489,0.283482 c 2.136661,0.05159 2.424429,-2.552815 -0.0945,-2.55134 l -7.931767,-0.03914 c -0.547778,-0.03062 -3.786912,-0.03276 -4.163469,-3.929608 l 10.583333,0.377976 c 1.821662,0.03822 1.90515,-2.597689 0,-2.645833 l -8.504465,0.09449 c -1.886188,-0.01762 -5.336225,-0.984054 -5.397625,-3.763057 l 7.391498,0.03865 c 1.084003,0.03806 0.871905,-2.413267 -0.322624,-2.417705 l -5.923481,-0.09449 c -3.44284,-0.282002 -4.175812,-1.795762 -4.913691,-3.307292 l 10.583333,0.566963 c 3.478082,3.143505 6.634703,7.010298 11.055809,8.031999 z"
         style="fill:none;stroke:#000000;stroke-width:0.26458332px;stroke-linecap:butt;stroke-linejoin:miter;stroke-opacity:1" />
      <path
         sodipodi:nodetypes="cccc"
         inkscape:connector-curvature="0"
         id="path902"
         d="m 56.034969,73.994046 v -3.779761 h -5.38616 c 0.297217,2.591627 2.88396,3.148119 5.38616,3.779761 z"
         style="fill:none;stroke:#000000;stroke-width:0.26458332px;stroke-linecap:butt;stroke-linejoin:miter;stroke-opacity:1" />
      <path
         sodipodi:nodetypes="cccccccccccc"
         inkscape:connector-curvature="0"
         id="path904"
         d="m 77.437871,71.915178 -9.260416,3.307292 -0.18899,4.960937 c 0.266262,3.956852 0.484044,8.018138 2.74033,10.252604 7.562882,5.904592 14.531118,0.697715 12.99293,-7.276042 -0.447719,-2.232252 -5.129525,-5.925014 -8.607066,-1.055646 -2.107506,3.501141 2.197598,6.535605 3.750204,5.174735 0.706578,-0.649624 1.361699,-1.06606 0.699123,-3.126901 -0.620617,-1.71031 1.579289,-2.544361 2.126118,-0.724918 1.511869,5.512116 -3.679413,7.060595 -5.669643,6.063831 -6.266698,-3.745061 -3.058488,-8.050605 -1.086683,-11.008555 z"
         style="fill:none;stroke:#000000;stroke-width:0.26458332px;stroke-linecap:butt;stroke-linejoin:miter;stroke-opacity:1" />
      <path
         sodipodi:nodetypes="ccccc"
         inkscape:connector-curvature="0"
         id="path906"
         d="m 31.986233,45.551338 c -0.02581,1.537902 0.614163,2.695358 1.464659,3.732514 L 10.914062,48.291665 C 8.1219839,47.861306 5.4969507,47.204242 4.4412201,44.417411 Z"
         style="fill:none;stroke:#000000;stroke-width:0.26458332px;stroke-linecap:butt;stroke-linejoin:miter;stroke-opacity:1" />
      <path
         sodipodi:nodetypes="ccccc"
         inkscape:connector-curvature="0"
         id="path908"
         d="m 35.813243,51.646203 c -0.217286,1.228423 0.154997,2.456847 1.322917,3.68527 L 17.434151,54.481026 c -3.566348,-0.28999 -5.15665,-2.062015 -6.756324,-3.82701 z"
         style="fill:none;stroke:#000000;stroke-width:0.26458332px;stroke-linecap:butt;stroke-linejoin:miter;stroke-opacity:1" />
      <path
         sodipodi:nodetypes="ccccc"
         inkscape:connector-curvature="0"
         id="path910"
         d="m 39.167781,57.788317 c -0.394938,1.444305 0.714999,2.738122 1.511906,4.063243 L 23.906993,60.76488 c -3.55693,-0.544833 -4.713144,-2.232863 -5.669642,-4.015997 z"
         style="fill:none;stroke:#000000;stroke-width:0.26458332px;stroke-linecap:butt;stroke-linejoin:miter;stroke-opacity:1" />
      <path
         sodipodi:nodetypes="ccccc"
         inkscape:connector-curvature="0"
         id="path912"
         d="m 43.183778,64.166665 c 0.142313,1.3669 0.79281,2.632162 1.559153,3.874256 L 31.702753,67.28497 c -3.355064,-0.44655 -4.43088,-2.31763 -5.858632,-3.96875 z"
         style="fill:none;stroke:#000000;stroke-width:0.26458332px;stroke-linecap:butt;stroke-linejoin:miter;stroke-opacity:1" />
      <path
         sodipodi:nodetypes="ccccc"
         inkscape:connector-curvature="0"
         id="path914"
         d="m 48.475445,70.497765 c 0.02612,1.530345 0.960571,2.606521 1.700892,3.779764 l -9.732885,-0.566965 c -3.37943,-0.180145 -4.393498,-2.169095 -5.71689,-3.921504 z"
         style="fill:none;stroke:#000000;stroke-width:0.26458332px;stroke-linecap:butt;stroke-linejoin:miter;stroke-opacity:1" />
      <path
         sodipodi:nodetypes="ccc"
         inkscape:connector-curvature="0"
         id="path916"
         d="m 64.681174,30.715773 c 4.926462,0.07863 4.522945,8.00061 0.04725,8.031993 -4.728892,-0.01954 -5.605901,-8.043293 -0.04725,-8.031993 z"
         style="fill:none;stroke:#000000;stroke-width:0.26458332px;stroke-linecap:butt;stroke-linejoin:miter;stroke-opacity:1" />
      <path
         sodipodi:nodetypes="ccc"
         inkscape:connector-curvature="0"
         id="path918"
         d="m 64.633927,33.219865 c -1.808267,0.0323 -1.798226,3.148994 0.09449,3.118303 2.026715,-0.04143 2.270925,-3.134966 -0.09449,-3.118303 z"
         style="fill:none;stroke:#000000;stroke-width:0.26458332px;stroke-linecap:butt;stroke-linejoin:miter;stroke-opacity:1" />
      <path
         sodipodi:nodetypes="ccc"
         inkscape:connector-curvature="0"
         id="path920"
         d="m 105.55901,78.660434 c -2.35246,0.02227 -2.28847,3.986771 0.0668,4.075861 2.77637,-0.02227 2.37651,-4.053588 -0.0668,-4.075861 z"
         style="fill:none;stroke:#000000;stroke-width:0.26458332px;stroke-linecap:butt;stroke-linejoin:miter;stroke-opacity:1" />
      <path
         sodipodi:nodetypes="ccc"
         inkscape:connector-curvature="0"
         id="path922"
         d="m 105.5256,70.308263 c -2.46109,0.02227 -2.42432,4.053586 0.0668,4.075858 2.4204,-0.02132 2.52109,-4.032506 -0.0668,-4.075858 z"
         style="fill:none;stroke:#000000;stroke-width:0.26458332px;stroke-linecap:butt;stroke-linejoin:miter;stroke-opacity:1" />
      <path
         sodipodi:nodetypes="ccc"
         inkscape:connector-curvature="0"
         id="path924"
         d="m 105.5256,61.822454 c 2.12118,-0.0078 2.58194,4.164662 0.0334,4.209497 -2.30551,0.04904 -2.15981,-4.136242 -0.0334,-4.209497 z"
         style="fill:none;stroke:#000000;stroke-width:0.26458332px;stroke-linecap:butt;stroke-linejoin:miter;stroke-opacity:1" />
      <path
         sodipodi:nodetypes="ccc"
         inkscape:connector-curvature="0"
         id="path926"
         d="m 105.55901,57.479326 c -2.60094,-0.01884 -2.43725,-4.068269 -0.10022,-4.10927 2.35704,-0.09417 2.71098,4.053227 0.10022,4.10927 z"
         style="fill:none;stroke:#000000;stroke-width:0.26458332px;stroke-linecap:butt;stroke-linejoin:miter;stroke-opacity:1" />
      <path
         sodipodi:nodetypes="ccc"
         inkscape:connector-curvature="0"
         id="path928"
         d="m 105.55901,45.017883 c 2.43614,0.05563 2.55288,4.009094 0.0334,4.142679 -2.14609,-0.02734 -2.72841,-3.970684 -0.0334,-4.142679 z"
         style="fill:none;stroke:#000000;stroke-width:0.26458332px;stroke-linecap:butt;stroke-linejoin:miter;stroke-opacity:1" />
      <path
         sodipodi:nodetypes="ccc"
         inkscape:connector-curvature="0"
         id="path930"
         d="m 105.4922,36.699121 c -2.18306,0.0025 -2.64036,3.955802 0.0668,4.009041 2.28885,-0.01503 2.45229,-3.994359 -0.0668,-4.009041 z"
         style="fill:none;stroke:#000000;stroke-width:0.26458332px;stroke-linecap:butt;stroke-linejoin:miter;stroke-opacity:1" />
      <path
         sodipodi:nodetypes="ccc"
         inkscape:connector-curvature="0"
         id="path932"
         d="m 105.5256,32.389398 c -2.31694,0.02408 -2.1945,-4.256241 0.0334,-4.276312 2.01541,-0.01036 2.73674,4.264132 -0.0334,4.276312 z"
         style="fill:none;stroke:#000000;stroke-width:0.26458332px;stroke-linecap:butt;stroke-linejoin:miter;stroke-opacity:1" />
      <path
         inkscape:connector-curvature="0"
         id="path934"
         d="M 90.525104,69.473045 C 90.1242,69.84054 85.480392,76.2216 85.480392,76.2216 l 4.376539,-0.300678 -2.33861,8.619442 7.817633,-10.256467 -4.710625,-0.133636 z"
         style="fill:none;stroke:#000000;stroke-width:0.26458332px;stroke-linecap:butt;stroke-linejoin:miter;stroke-opacity:1" />
      <path
         sodipodi:nodetypes="cccccccc"
         inkscape:connector-curvature="0"
         id="path936"
         d="m 115.70952,72.200111 4.74403,0.902033 c 1.20703,0.670434 1.54282,1.545864 1.23612,2.57247 0.99002,1.506662 2.07246,1.811861 3.24065,1.00226 0.32055,-0.472528 0.84292,-0.541403 0.66817,-2.00452 l 5.0113,1.570206 c -0.70694,-1.71412 -1.26691,-3.689513 -2.73951,-4.042449 -6.44783,-1.686853 -9.58578,-1.041747 -12.16076,0 z"
         style="fill:none;stroke:#000000;stroke-width:0.26458332px;stroke-linecap:butt;stroke-linejoin:miter;stroke-opacity:1" />
      <path
         sodipodi:nodetypes="ccc"
         inkscape:connector-curvature="0"
         id="path938"
         d="m 117.61955,60.753376 c 2.2314,-0.0068 2.83881,3.914621 -0.13364,4.042452 -1.8835,-0.0093 -2.57469,-4.048391 0.13364,-4.042452 z"
         style="fill:none;stroke:#000000;stroke-width:0.26458332px;stroke-linecap:butt;stroke-linejoin:miter;stroke-opacity:1" />
      <path
         sodipodi:nodetypes="ccc"
         inkscape:connector-curvature="0"
         id="path940"
         d="m 124.63538,61.655412 c -2.50931,0.04317 -2.32328,4.088802 -0.10023,4.075861 2.49828,-0.0081 2.40217,-4.068407 0.10023,-4.075861 z"
         style="fill:none;stroke:#000000;stroke-width:0.26458332px;stroke-linecap:butt;stroke-linejoin:miter;stroke-opacity:1" />
      <path
         sodipodi:nodetypes="ccc"
         inkscape:connector-curvature="0"
         id="path942"
         d="m 131.38393,63.359254 c -2.52646,0.02227 -2.24787,4.086997 -0.0668,4.075861 2.51913,0.01139 2.57011,-4.020431 0.0668,-4.075861 z"
         style="fill:none;stroke:#000000;stroke-width:0.26458332px;stroke-linecap:butt;stroke-linejoin:miter;stroke-opacity:1" />
      <path
         sodipodi:nodetypes="ccc"
         inkscape:connector-curvature="0"
         id="path944"
         d="m 138.29953,65.564228 c -2.24832,-0.06063 -2.73742,4.01388 -0.10023,4.075861 2.40695,0.05074 1.95238,-4.016854 0.10023,-4.075861 z"
         style="fill:none;stroke:#000000;stroke-width:0.26458332px;stroke-linecap:butt;stroke-linejoin:miter;stroke-opacity:1" />
      <path
         sodipodi:nodetypes="ccc"
         inkscape:connector-curvature="0"
         id="path946"
         d="m 91.493956,63.025167 c -0.06,-3.061776 4.191065,-2.799504 4.075861,-0.133635 0.0121,2.172496 -4.043933,2.868723 -4.075861,0.133635 z"
         style="fill:none;stroke:#000000;stroke-width:0.26458332px;stroke-linecap:butt;stroke-linejoin:miter;stroke-opacity:1" />
      <path
         sodipodi:nodetypes="ccc"
         inkscape:connector-curvature="0"
         id="path948"
         d="m 88.721035,63.860386 c -0.122102,-2.700837 -3.941072,-2.440857 -3.942225,0.200451 0.05584,2.739078 4.097753,2.214083 3.942225,-0.200451 z"
         style="fill:none;stroke:#000000;stroke-width:0.26458332px;stroke-linecap:butt;stroke-linejoin:miter;stroke-opacity:1" />
      <path
         sodipodi:nodetypes="ccc"
         inkscape:connector-curvature="0"
         id="path950"
         d="m 78.09707,65.597637 c 0.09369,2.881298 3.803603,2.598764 3.775183,-0.133636 -0.125975,-2.697478 -3.847344,-2.534885 -3.775183,0.133636 z"
         style="fill:none;stroke:#000000;stroke-width:0.26458332px;stroke-linecap:butt;stroke-linejoin:miter;stroke-opacity:1" />
      <path
         sodipodi:nodetypes="ccc"
         inkscape:connector-curvature="0"
         id="path952"
         d="m 71.081246,67.83602 c 0.07243,2.946196 4.326306,1.896956 4.176085,-0.334087 -0.05842,-2.598268 -4.326407,-1.902075 -4.176085,0.334087 z"
         style="fill:none;stroke:#000000;stroke-width:0.26458332px;stroke-linecap:butt;stroke-linejoin:miter;stroke-opacity:1" />
      <path
         sodipodi:nodetypes="ccccc"
         inkscape:connector-curvature="0"
         id="path954"
         d="M 99.912944,20.763174 C 100.7535,19.71901 99.248481,18.245742 98.175693,19.159557 87.348324,29.983138 79.428418,43.194991 73.586898,58.114091 c -0.361006,1.269302 1.92096,1.859021 2.472243,0.601355 5.078376,-14.256197 12.72059,-27.079661 23.853803,-37.952272 z"
         style="fill:none;stroke:#000000;stroke-width:0.26458332px;stroke-linecap:butt;stroke-linejoin:miter;stroke-opacity:1" />
      <path
         sodipodi:nodetypes="ccccc"
         inkscape:connector-curvature="0"
         id="path975"
         d="m 111.00463,20.829992 c -1.23771,-1.333725 0.91474,-2.401705 1.73725,-1.603617 11.76069,11.583171 19.34276,24.747439 24.52198,38.820898 0.52064,1.238931 -1.76017,2.131947 -2.40543,0.801809 -5.4468,-14.390378 -12.21911,-27.871837 -23.8538,-38.01909 z"
         style="fill:none;stroke:#000000;stroke-width:0.26458332px;stroke-linecap:butt;stroke-linejoin:miter;stroke-opacity:1" />
      <path
         sodipodi:nodetypes="ccccccc"
         inkscape:connector-curvature="0"
         id="path977"
         d="M 99.645676,84.306504 97.641155,81.366539 C 88.452982,86.903903 77.820917,97.480417 77.061401,118.31655 l -0.133633,42.96358 3.474503,2.40542 0.601356,-47.84124 C 82.384125,99.149647 89.461741,89.933985 99.645676,84.306504 Z"
         style="fill:none;stroke:#000000;stroke-width:0.26458332px;stroke-linecap:butt;stroke-linejoin:miter;stroke-opacity:1" />
      <path
         sodipodi:nodetypes="cccc"
         inkscape:connector-curvature="0"
         id="path979"
         d="m 71.849646,94.329111 c 3.103524,1.062838 6.321812,1.475343 9.955789,-0.467722 -2.541452,4.439717 -4.248232,9.594861 -5.545843,15.100731 -1.739985,-4.87767 -3.533935,-9.755339 -4.409946,-14.633009 z"
         style="fill:none;stroke:#000000;stroke-width:0.26458332px;stroke-linecap:butt;stroke-linejoin:miter;stroke-opacity:1" />
      <path
         sodipodi:nodetypes="ccccccccc"
         inkscape:connector-curvature="0"
         id="path981"
         d="m 75.457785,113.23843 -0.200454,8.21854 -10.022606,-24.722432 c -2.105604,-4.258207 -10.410341,0.755126 -6.748556,6.280832 1.112729,1.1529 3.131222,0.4358 1.469983,-1.5368 -2.853527,-4.155937 4.138083,-4.522015 4.744035,-1.06908 0.350802,2.136 -3.180337,8.83319 -8.953529,2.07134 -4.252283,-6.282317 7.8159,-15.790527 12.962569,-6.748554 z"
         style="fill:none;stroke:#000000;stroke-width:0.26458332px;stroke-linecap:butt;stroke-linejoin:miter;stroke-opacity:1" />
      <path
         sodipodi:nodetypes="ccccccccccccc"
         inkscape:connector-curvature="0"
         id="path983"
         d="m 103.14025,88.593376 -1.79539,-2.362351 C 91.580209,90.737706 84.047622,102.22962 83.721724,116.51637 l -1.039433,52.44419 c -0.306702,8.35465 -10.272012,6.42503 -10.110864,-0.0945 1.7e-4,-1.92527 3.473278,-1.78284 3.023809,-0.85045 -1.662202,3.57175 2.663198,5.9789 4.169693,2.35662 1.743514,-4.81271 -2.4934,-6.35115 -5.776092,-5.56941 -3.428693,0.92185 -4.793309,8.29632 -0.472469,11.33928 3.873985,2.31389 7.149492,1.93462 10.016368,-0.28348 2.973938,-3.20991 3.835711,-10.90846 3.779763,-13.22917 l -0.566965,-47.43601 c 0.970994,-13.22843 6.860632,-21.682874 16.394716,-26.600064 z"
         style="fill:none;stroke:#000000;stroke-width:0.26458332px;stroke-linecap:butt;stroke-linejoin:miter;stroke-opacity:1" />
      <path
         sodipodi:nodetypes="ccccccccc"
         inkscape:connector-curvature="0"
         id="path985"
         d="m 99.712493,97.536345 c 3.853137,-0.498666 7.706267,-0.525797 11.559407,-0.133635 1.30096,0.138215 1.57901,-0.335252 1.60361,-0.734992 l -0.0668,-0.868624 c -0.0738,-0.575881 -0.27413,-1.369294 -0.66818,-1.670436 l -5.47902,-3.474503 c -1.14101,-0.581465 -2.35008,-0.143424 -2.80633,0.133635 l -4.476763,2.939966 c -1.856504,1.286437 -0.875023,4.131489 0.334076,3.808589 z"
         style="fill:none;stroke:#000000;stroke-width:0.26458332px;stroke-linecap:butt;stroke-linejoin:miter;stroke-opacity:1" />
      <path
         sodipodi:nodetypes="ccccc"
         inkscape:connector-curvature="0"
         id="path987"
         d="m 105.25834,111.50118 c 3.06971,-4.16301 5.05133,-7.78197 7.08264,-11.42577 -3.94223,-0.611385 -7.88445,-0.635783 -11.82668,0 -0.714185,0.34155 -1.81605,-0.286096 -2.873145,-0.801813 2.387605,4.530243 4.874835,8.761583 7.617185,12.227583 z"
         style="fill:none;stroke:#000000;stroke-width:0.26458332px;stroke-linecap:butt;stroke-linejoin:miter;stroke-opacity:1" />
      <path
         sodipodi:nodetypes="ccccc"
         inkscape:connector-curvature="0"
         id="path989"
         d="m 94.70119,98.672241 -1.937705,3.073599 c 4.07014,7.6846 8.314055,14.6741 12.762115,20.84702 l 2.13816,-3.27405 c -4.71849,-6.08692 -8.863016,-13.32177 -12.96257,-20.646569 z"
         style="fill:none;stroke:#000000;stroke-width:0.26458332px;stroke-linecap:butt;stroke-linejoin:miter;stroke-opacity:1" />
      <path
         inkscape:connector-curvature="0"
         id="path991"
         d="m 106.52786,113.83979 9.48807,-15.234366 2.13816,3.006786 -8.75308,15.36799 z"
         style="fill:none;stroke:#000000;stroke-width:0.26458332px;stroke-linecap:butt;stroke-linejoin:miter;stroke-opacity:1" />
      <path
         inkscape:connector-curvature="0"
         id="path993"
         d="m 91.293505,104.55217 12.762115,19.9784 -2.93996,3.34087 -11.225323,-18.77569 z"
         style="fill:none;stroke:#000000;stroke-width:0.26458332px;stroke-linecap:butt;stroke-linejoin:miter;stroke-opacity:1" />
      <path
         sodipodi:nodetypes="ccccc"
         inkscape:connector-curvature="0"
         id="path995"
         d="m 119.08953,104.2849 c -4.94058,9.08801 -9.94778,18.09829 -16.37026,25.45742 l 2.20498,3.67496 c 5.37845,-5.98959 10.6484,-14.90852 15.90253,-24.25471 z"
         style="fill:none;stroke:#000000;stroke-width:0.26458332px;stroke-linecap:butt;stroke-linejoin:miter;stroke-opacity:1" />
      <path
         sodipodi:nodetypes="ccccc"
         inkscape:connector-curvature="0"
         id="path997"
         d="m 89.3558,113.10479 c 5.741436,9.83228 11.40829,19.73448 19.10977,27.72922 l -3.0736,3.60814 C 99.570049,137.99444 94.362323,129.82698 89.155346,121.65742 Z"
         style="fill:none;stroke:#000000;stroke-width:0.26458332px;stroke-linecap:butt;stroke-linejoin:miter;stroke-opacity:1" />
      <path
         sodipodi:nodetypes="ccccc"
         inkscape:connector-curvature="0"
         id="path999"
         d="m 106.52786,134.82044 3.14042,3.94223 c 4.18072,-5.17195 8.23643,-11.71894 12.2944,-18.24115 l -0.46772,-7.684 c -4.57317,8.2782 -9.51257,15.71927 -14.9671,21.98292 z"
         style="fill:none;stroke:#000000;stroke-width:0.26458332px;stroke-linecap:butt;stroke-linejoin:miter;stroke-opacity:1" />
      <path
         inkscape:connector-curvature="0"
         id="path1001"
         d="m 89.088531,126.13418 14.432549,20.17885 -3.34086,4.07586 -10.891238,-15.10072 z"
         style="fill:none;stroke:#000000;stroke-width:0.26458332px;stroke-linecap:butt;stroke-linejoin:miter;stroke-opacity:1" />
      <path
         sodipodi:nodetypes="ccccc"
         inkscape:connector-curvature="0"
         id="path1003"
         d="m 101.58338,151.99251 c 7.45296,-7.28331 13.76161,-16.98241 20.11203,-26.59332 l 0.13363,8.95353 c -5.51474,8.01223 -11.0642,15.43432 -16.70434,21.31475 z"
         style="fill:none;stroke:#000000;stroke-width:0.26458332px;stroke-linecap:butt;stroke-linejoin:miter;stroke-opacity:1" />
      <path
         inkscape:connector-curvature="0"
         id="path1005"
         d="m 106.72832,157.60517 3.20723,3.27405 11.62622,-14.633 0.13364,-7.48355 z"
         style="fill:none;stroke:#000000;stroke-width:0.26458332px;stroke-linecap:butt;stroke-linejoin:miter;stroke-opacity:1" />
      <path
         sodipodi:nodetypes="ccccc"
         inkscape:connector-curvature="0"
         id="path1007"
         d="m 108.26512,162.48284 -2.60588,2.93997 C 99.685319,160.44358 94.532233,153.82268 89.556251,146.84757 l -0.267269,-7.28309 c 5.444203,8.45769 11.768048,16.09857 18.976138,22.91836 z"
         style="fill:none;stroke:#000000;stroke-width:0.26458332px;stroke-linecap:butt;stroke-linejoin:miter;stroke-opacity:1" />
      <path
         sodipodi:nodetypes="ccccc"
         inkscape:connector-curvature="0"
         id="path1009"
         d="m 100.44749,169.49866 3.14041,-2.40542 c -5.261278,-4.80587 -9.550418,-10.58389 -13.964832,-16.23663 l -0.06682,6.8822 z"
         style="fill:none;stroke:#000000;stroke-width:0.26458332px;stroke-linecap:butt;stroke-linejoin:miter;stroke-opacity:1" />
      <path
         sodipodi:nodetypes="ccccc"
         inkscape:connector-curvature="0"
         id="path1011"
         d="m 102.65246,171.10228 c 7.17727,-5.71014 12.87302,-13.14871 18.57523,-20.57975 l -0.13364,6.88219 c -5.82313,6.65723 -12.03747,14.09687 -15.56845,16.16981 z"
         style="fill:none;stroke:#000000;stroke-width:0.26458332px;stroke-linecap:butt;stroke-linejoin:miter;stroke-opacity:1" />
      <path
         inkscape:connector-curvature="0"
         id="path1013"
         d="m 107.19604,175.17814 3.67495,2.6727 10.89124,-10.49033 -0.46772,-6.28083 z"
         style="fill:none;stroke:#000000;stroke-width:0.26458332px;stroke-linecap:butt;stroke-linejoin:miter;stroke-opacity:1" />
      <path
         sodipodi:nodetypes="ccccc"
         inkscape:connector-curvature="0"
         id="path1015"
         d="m 105.19152,182.12715 3.80859,-2.6727 c -7.2826,-4.90803 -13.53474,-11.19 -19.310224,-18.10751 l -0.601355,6.28084 c 5.303721,5.4086 10.55895,11.25364 16.102989,14.49937 z"
         style="fill:none;stroke:#000000;stroke-width:0.26458332px;stroke-linecap:butt;stroke-linejoin:miter;stroke-opacity:1" />
      <path
         sodipodi:nodetypes="ccccc"
         inkscape:connector-curvature="0"
         id="path1017"
         d="m 98.309329,186.73755 4.944481,-3.00678 c -5.392815,-3.65575 -9.897488,-8.32653 -14.432551,-12.96257 l -2.472243,5.67947 c 3.863653,3.84035 7.727698,7.6794 11.960313,10.28988 z"
         style="fill:none;stroke:#000000;stroke-width:0.26458332px;stroke-linecap:butt;stroke-linejoin:miter;stroke-opacity:1" />
      <path
         sodipodi:nodetypes="ccccc"
         inkscape:connector-curvature="0"
         id="path1019"
         d="m 100.84839,188.0739 c 7.56689,-4.47174 14.49466,-10.86081 21.31474,-17.57298 l 2.07134,5.67948 c -6.11427,5.67343 -12.17526,11.70654 -18.77568,14.09847 z"
         style="fill:none;stroke:#000000;stroke-width:0.26458332px;stroke-linecap:butt;stroke-linejoin:miter;stroke-opacity:1" />
      <path
         sodipodi:nodetypes="cccccccccc"
         inkscape:connector-curvature="0"
         id="path1021"
         d="m 75.028274,135.22619 0.188986,-8.36272 -6.992559,-15.59152 c -3.728609,-8.14079 -15.033336,-3.13364 -13.18192,3.1183 2.656551,8.58606 9.029477,2.6201 8.953311,0.42522 -0.106998,-2.654 -2.664841,-3.70069 -4.275856,-2.55133 -1.501978,1.08015 -0.70598,2.01669 -0.283482,2.97656 0.721505,1.67664 -0.966464,2.51241 -1.795386,1.22842 -3.536694,-5.41883 4.846702,-10.06654 7.79576,-3.73252 z"
         style="fill:none;stroke:#000000;stroke-width:0.26458332px;stroke-linecap:butt;stroke-linejoin:miter;stroke-opacity:1" />
      <path
         sodipodi:nodetypes="cccc"
         inkscape:connector-curvature="0"
         id="path1023"
         d="m 75.07552,153.22731 c -3.442407,-4.78314 -5.847492,-10.08494 -8.598958,-15.21355 1.768953,6.9074 4.137387,14.1745 8.409969,22.58408 0.03385,-2.80662 0.03601,-5.99347 0.188989,-7.37053 z"
         style="fill:none;stroke:#000000;stroke-width:0.26458332px;stroke-linecap:butt;stroke-linejoin:miter;stroke-opacity:1" />
      <path
         sodipodi:nodetypes="ccccccccc"
         inkscape:connector-curvature="0"
         id="path1025"
         d="m 75.07552,148.78608 0.14174,-8.69345 -8.268229,-16.11123 c -3.697103,-6.97875 -14.372184,-0.47837 -11.386531,5.05543 3.879082,6.02433 9.205612,0.95896 7.74851,-1.27567 -2.44923,-3.83413 -5.989115,-1.56557 -3.63802,1.5119 0.101995,1.45028 -1.236364,1.2867 -1.842633,0.66146 -3.134737,-2.82058 3.504154,-10.10305 6.378348,-4.15774 z"
         style="fill:none;stroke:#000000;stroke-width:0.26458332px;stroke-linecap:butt;stroke-linejoin:miter;stroke-opacity:1" />
      <path
         sodipodi:nodetypes="ccccccccccc"
         inkscape:connector-curvature="0"
         id="path1027"
         d="m 133.80357,72.009671 9.16592,3.496281 -0.28348,8.646205 c -0.58136,11.914061 -13.27703,10.040148 -15.54427,4.204983 -2.74951,-8.666134 7.51205,-10.302169 8.78794,-6.80357 1.58789,5.108098 -1.94853,7.265188 -4.01599,5.008184 -0.39293,-0.495988 -0.88264,-0.867561 -0.42523,-2.456844 0.66675,-1.661243 -1.6827,-2.157642 -2.24423,-0.732331 -1.94239,6.039301 5.19455,8.430074 7.81938,4.890068 1.39473,-2.32483 2.63048,-5.96292 -0.85044,-9.543899 -0.27278,-2.236359 -1.26361,-4.472718 -2.4096,-6.709077 z"
         style="fill:none;stroke:#000000;stroke-width:0.26458332px;stroke-linecap:butt;stroke-linejoin:miter;stroke-opacity:1" />
      <path
         sodipodi:nodetypes="cccc"
         inkscape:connector-curvature="0"
         id="path1029"
         d="m 128.77805,93.527302 c 3.1589,2.196022 6.51859,2.6251 10.12284,0.902036 -1.15558,4.766197 -2.56443,9.387662 -4.34313,13.797792 -1.39269,-6.30745 -3.40875,-10.971449 -5.77971,-14.699828 z"
         style="fill:none;stroke:#000000;stroke-width:0.26458332px;stroke-linecap:butt;stroke-linejoin:miter;stroke-opacity:1" />
      <path
         sodipodi:nodetypes="ccccccc"
         inkscape:connector-curvature="0"
         id="path1031"
         d="m 111.2719,84.172869 2.07134,-2.80633 c 10.77152,6.957705 19.5087,16.204845 19.97839,35.747301 l 0.46773,44.9681 -3.20724,1.60361 -1.00226,-51.44938 C 127.87086,96.180124 119.40452,89.79773 111.2719,84.172869 Z"
         style="fill:none;stroke:#000000;stroke-width:0.26458332px;stroke-linecap:butt;stroke-linejoin:miter;stroke-opacity:1" />
      <path
         sodipodi:nodetypes="ccccccccccccc"
         inkscape:connector-curvature="0"
         id="path1033"
         d="m 107.86421,88.382363 1.5368,-2.071338 c 2.66172,1.771794 17.51022,8.105122 18.0407,30.936445 l 0.86862,52.38483 c 0.66458,7.65409 13.23626,5.28351 9.6217,-1.67043 -0.76426,-1.40583 -3.04492,-1.28926 -2.13815,1.00226 1.06057,2.67752 -2.38471,3.61918 -3.70263,2.53165 -0.91475,-0.84748 -3.26145,-3.57918 1.02993,-6.47388 2.87341,-1.88772 9.22689,1.26372 7.16162,7.9317 -2.24973,5.33533 -10.61786,5.97558 -13.30882,2.62545 -3.54638,-4.1642 -3.6856,-11.54889 -3.4745,-20.04522 l 0.66817,-41.09268 c -0.48068,-11.05682 -6.93428,-19.979522 -16.30344,-26.058787 z"
         style="fill:none;stroke:#000000;stroke-width:0.26458332px;stroke-linecap:butt;stroke-linejoin:miter;stroke-opacity:1" />
      <path
         sodipodi:nodetypes="cccc"
         inkscape:connector-curvature="0"
         id="path1035"
         d="m 136.11867,153.13281 -0.14174,7.41778 c 3.72402,-5.61588 6.1968,-13.98449 8.69345,-22.30059 -2.84833,4.9643 -5.22321,10.63877 -8.55171,14.88281 z"
         style="fill:none;stroke:#000000;stroke-width:0.26458332px;stroke-linecap:butt;stroke-linejoin:miter;stroke-opacity:1" />
      <path
         sodipodi:nodetypes="cccccccccc"
         inkscape:connector-curvature="0"
         id="path1037"
         d="m 135.92968,140.13988 8.7407,-16.96168 c 4.93128,-5.93676 11.09665,-0.33163 11.00856,3.30729 -0.0436,7.00584 -5.48664,6.98532 -7.37054,4.25223 -1.82883,-3.18758 0.90069,-6.26234 2.97657,-4.67745 1.62112,1.61431 0.0333,3.2503 -0.23624,3.63802 -0.42224,0.74008 2.01881,1.04738 2.36235,0.28348 2.09575,-5.59946 -4.11995,-7.80616 -5.85863,-5.05543 l -11.52827,24.19047 z"
         style="fill:none;stroke:#000000;stroke-width:0.26458332px;stroke-linecap:butt;stroke-linejoin:miter;stroke-opacity:1" />
      <path
         sodipodi:nodetypes="cccccccccc"
         inkscape:connector-curvature="0"
         id="path1039"
         d="m 135.88244,135.32068 0.0472,-8.45721 7.55953,-16.81995 c 3.27042,-6.39069 13.08649,-2.82648 12.6622,3.3073 -0.39791,6.37307 -5.59256,7.07781 -8.36273,3.54352 -0.90433,-1.038 0.45562,-6.47414 4.06325,-4.06324 1.91294,1.71567 -0.82595,2.38637 -0.8032,3.30729 8.9e-4,1.69918 2.24518,1.17584 2.50409,0.28348 2.30377,-7.55858 -6.48415,-8.18779 -7.98474,-4.11049 z"
         style="fill:none;stroke:#000000;stroke-width:0.26458332px;stroke-linecap:butt;stroke-linejoin:miter;stroke-opacity:1" />
      <path
         sodipodi:nodetypes="cccccccccccccc"
         inkscape:connector-curvature="0"
         id="path1041"
         d="m 134.46502,41.015623 3.44904,-10.819567 14.50484,-0.141741 0.0945,20.505207 -4.58296,-4.393972 c -0.77216,-0.687385 -2.59759,0.756738 -1.79539,1.700892 l 6.23661,5.669643 v 3.732514 L 141.70564,47.075056 c -1.0905,-1.008943 -2.49295,0.989495 -1.74814,1.748139 l 12.46141,11.563709 0.0945,12.378719 c -1.11595,9.828358 -4.89813,13.144075 -8.45722,16.063989 1.77933,-14.7316 0.33346,-30.245065 -9.59117,-47.813989 z"
         style="fill:none;stroke:#000000;stroke-width:0.26458332px;stroke-linecap:butt;stroke-linejoin:miter;stroke-opacity:1" />
      <path
         sodipodi:nodetypes="ccc"
         inkscape:connector-curvature="0"
         id="path1043"
         d="m 146.33432,30.869303 c -4.69489,-0.01237 -4.60341,7.75759 0.13363,7.851041 5.08131,-0.07773 4.87529,-7.767419 -0.13363,-7.851041 z"
         style="fill:none;stroke:#000000;stroke-width:0.26458332px;stroke-linecap:butt;stroke-linejoin:miter;stroke-opacity:1" />
      <path
         sodipodi:nodetypes="ccc"
         inkscape:connector-curvature="0"
         id="path1045"
         d="m 146.38443,33.224615 c -2.13353,0.09729 -1.97506,3.154351 0.0501,3.123713 1.88923,0.02662 1.86903,-3.116932 -0.0501,-3.123713 z"
         style="fill:none;stroke:#000000;stroke-width:0.26458332px;stroke-linecap:butt;stroke-linejoin:miter;stroke-opacity:1" />
      <path
         sodipodi:nodetypes="ccccc"
         inkscape:connector-curvature="0"
         id="path1047"
         d="m 154.90365,29.783521 -0.13364,3.006782 16.63753,0.06682 c -1.28119,-1.693911 -3.53425,-2.869497 -7.48355,-3.140417 z"
         style="fill:none;stroke:#000000;stroke-width:0.26458332px;stroke-linecap:butt;stroke-linejoin:miter;stroke-opacity:1" />
      <path
         sodipodi:nodetypes="cccc"
         inkscape:connector-curvature="0"
         id="path1049"
         d="m 154.7032,34.995276 11.22532,0.200453 c -3.09789,1.682599 -6.85937,2.480393 -11.02487,2.739512 z"
         style="fill:none;stroke:#000000;stroke-width:0.26458332px;stroke-linecap:butt;stroke-linejoin:miter;stroke-opacity:1" />
      <path
         sodipodi:nodetypes="cccccccccccccccccc"
         inkscape:connector-curvature="0"
         id="path1051"
         d="m 154.77001,54.372316 -0.0668,13.430295 6.08038,-0.06682 c 3.37077,-0.08415 4.0185,-1.930269 4.40994,-3.942225 l -8.01808,0.267269 c -1.00902,-0.0063 -1.5484,-2.60467 -0.0668,-2.672694 l 7.14946,-0.133636 c 3.22077,-0.127258 4.65647,-1.682577 5.21176,-3.942225 l -10.89124,0.668173 c -1.81131,0.01708 -1.61687,-2.724912 0,-2.739512 h 9.75534 c 3.00471,-0.735732 3.79435,-2.262557 4.34313,-3.875407 l -7.95127,0.334086 c -1.23639,0.05269 -0.76192,-2.516828 0.40091,-2.605878 l 6.48128,-0.06682 c 3.14167,-0.296295 4.60501,-1.487706 5.07812,-3.207234 l -10.22305,0.467722 c -3.78606,3.234545 -7.54135,6.617794 -11.69308,8.084906 z"
         style="fill:none;stroke:#000000;stroke-width:0.26458332px;stroke-linecap:butt;stroke-linejoin:miter;stroke-opacity:1" />
      <path
         sodipodi:nodetypes="ccccc"
         inkscape:connector-curvature="0"
         id="path1053"
         d="m 179.06622,45.456845 c 0.6287,1.826255 -0.74546,2.651082 -1.51191,3.779761 l 22.77307,-1.039434 c 4.66351,-0.356377 4.76226,-2.23434 5.85863,-3.779761 z"
         style="fill:none;stroke:#000000;stroke-width:0.26458332px;stroke-linecap:butt;stroke-linejoin:miter;stroke-opacity:1" />
      <path
         sodipodi:nodetypes="ccccc"
         inkscape:connector-curvature="0"
         id="path1055"
         d="m 175.28645,51.598956 c 0.62898,1.291419 -0.41407,2.582838 -1.5119,3.874257 l 19.46577,-0.850447 c 3.38963,-0.325403 5.24792,-1.963378 6.89807,-3.779761 z"
         style="fill:none;stroke:#000000;stroke-width:0.26458332px;stroke-linecap:butt;stroke-linejoin:miter;stroke-opacity:1" />
      <path
         sodipodi:nodetypes="ccccc"
         inkscape:connector-curvature="0"
         id="path1057"
         d="m 171.88467,57.741071 c 0.50143,1.432736 -0.6548,2.589196 -1.6064,3.77976 l 15.7805,-0.566962 c 2.93501,-0.608039 5.36416,-1.609515 6.04763,-3.96875 z"
         style="fill:none;stroke:#000000;stroke-width:0.26458332px;stroke-linecap:butt;stroke-linejoin:miter;stroke-opacity:1" />
      <path
         sodipodi:nodetypes="ccccc"
         inkscape:connector-curvature="0"
         id="path1059"
         d="m 168.1994,64.072171 c 0.37704,1.810666 -1.13439,2.677101 -2.17336,3.779764 l 12.94568,-0.377979 c 2.58149,-0.744967 4.81468,-1.907909 6.14212,-4.157736 z"
         style="fill:none;stroke:#000000;stroke-width:0.26458332px;stroke-linecap:butt;stroke-linejoin:miter;stroke-opacity:1" />
      <path
         sodipodi:nodetypes="ccccc"
         inkscape:connector-curvature="0"
         id="path1061"
         d="m 162.90773,70.781248 c 0.29354,1.595679 -0.48911,2.653263 -1.70089,3.496281 l 8.50447,-0.377976 c 2.99372,-0.691899 5.34703,-1.864103 6.3311,-4.063243 z"
         style="fill:none;stroke:#000000;stroke-width:0.26458332px;stroke-linecap:butt;stroke-linejoin:miter;stroke-opacity:1" />
      <path
         sodipodi:nodetypes="cccc"
         inkscape:connector-curvature="0"
         id="path1063"
         d="m 154.78125,70.497768 0.0945,3.307292 c 2.21264,-0.476549 4.45706,-0.905433 5.19717,-3.590775 z"
         style="fill:none;stroke:#000000;stroke-width:0.26458332px;stroke-linecap:butt;stroke-linejoin:miter;stroke-opacity:1" />
      <path
         sodipodi:nodetypes="cccccccccc"
         inkscape:connector-curvature="0"
         id="path1065"
         d="m 135.45721,121.5718 -0.18898,-8.55171 6.3311,-16.063992 c 2.32108,-6.624396 11.42667,-6.742489 13.22916,-0.188986 2.05599,9.067018 -5.5224,9.594398 -7.843,6.898068 -2.62066,-3.64423 0.6601,-6.646562 2.74033,-5.716894 2.0183,1.039629 1.80521,2.660484 0.66145,3.827014 -1.07069,1.43333 1.31853,2.0017 2.03163,1.08668 3.9369,-6.2263 -5.22013,-9.363262 -6.52009,-6.520091 z"
         style="fill:none;stroke:#000000;stroke-width:0.26458332px;stroke-linecap:butt;stroke-linejoin:miter;stroke-opacity:1" />
      <path
         sodipodi:nodetypes="ccccccccccccccccccscccccccsccccccccccccccccccc"
         inkscape:connector-curvature="0"
         id="path1067"
         d="M 104.45653,7.0656109 C 94.952272,16.830487 85.413918,26.549236 77.996846,39.137955 L 73.720533,26.843556 h -28.0633 c -3.251779,0.02773 -6.503559,2.61348 -9.755338,6.280834 6.665179,3.071155 13.059063,8.109199 20.178849,7.884452 l 0.267269,10.69078 C 53.009178,51.847292 49.958334,47.675088 46.859944,44.216076 31.821096,43.555361 16.953806,43.409323 1.6913957,42.07792 c 0.4657739,3.081673 2.0482398,5.523382 6.2349777,7.364734 1.6197552,4.292811 3.8527436,6.281395 7.4821556,6.429288 0.996723,5.439979 4.681723,5.756987 7.397159,7.186634 2.061993,3.421993 4.227334,6.038238 9.023703,6.02028 1.183379,3.001043 4.125971,6.892725 6.21066,7.075928 6.104585,0.419079 12.266204,1.16135 18.008267,-0.473863 -0.92671,5.834556 5.069992,10.720024 8.85232,14.906416 -15.521796,-1.482612 -15.257383,13.711763 -7.617183,15.768903 -6.590006,2.44202 -6.237322,10.10158 -0.133633,13.89802 -11.351203,11.36792 5.051601,17.04015 6.786665,10.37798 0.406113,-1.55936 1.493262,4.20989 2.627294,4.56224 -5.110317,1.29726 2.145042,17.44033 6.755848,27.55563 -9.068244,1.98282 -5.367839,16.25949 2.271789,16.97161 3.414806,-0.0884 6.865765,0.50215 9.008884,-2.01401 5.974372,6.66609 13.111477,11.84403 20.967218,15.12365 8.43617,-4.26246 13.37302,-8.8756 19.44166,-15.13176 14.85386,7.43462 24.81985,-8.02279 12.18786,-14.68222 8.15478,-14.83589 11.28583,-25.73133 8.067,-27.48379 -1.06309,-0.57879 1.13521,-2.44332 1.68163,-3.58433 2.8929,7.55369 18.07367,-2.65398 6.78688,-11.90831 6.32354,-3.21556 4.82288,-10.4541 -0.24435,-14.07079 8.0562,-5.68061 1.80057,-18.436158 -7.54029,-15.458321 6.00314,-5.511281 7.11057,-9.722343 8.10054,-14.619001 4.32256,0.711392 9.8427,0.325678 14.04254,0.05536 5.92904,-1.006406 9.38078,-2.210427 10.39919,-6.742417 6.35539,-0.542212 7.44849,-3.861737 9.48807,-6.681737 4.85944,-0.208904 5.58195,-3.556175 6.94901,-6.414471 5.68159,-1.750909 5.8318,-4.06331 7.84531,-6.272728 3.09605,-1.002103 4.53133,-3.563051 4.98363,-6.957113 l -43.29767,1.202713 c -3.14109,3.684082 -6.69837,6.824623 -9.33961,7.884451 l 0.25245,-11.492589 c 5.84972,-1.146555 10.8895,-1.533782 20.57975,-6.280834 -2.46967,-2.212682 -5.07252,-4.408717 -9.52188,-6.373937 l -29.46426,0.110707 -3.60281,11.225321 C 126.07015,26.94899 114.47353,15.032403 104.45653,7.0656109 Z"
         style="fill:none;stroke:#000000;stroke-width:0.26458332px;stroke-linecap:butt;stroke-linejoin:miter;stroke-opacity:1" />
    </g>
  </g>
</svg>
